<?xml version="1.0" encoding="utf-8" standalone="no"?>
<!DOCTYPE svg PUBLIC "-//W3C//DTD SVG 1.1//EN"
  "http://www.w3.org/Graphics/SVG/1.1/DTD/svg11.dtd">
<svg xmlns:xlink="http://www.w3.org/1999/xlink" width="427.4525pt" height="191.4225pt" viewBox="0 0 427.4525 191.4225" xmlns="http://www.w3.org/2000/svg" version="1.1">
 <metadata>
  <rdf:RDF xmlns:dc="http://purl.org/dc/elements/1.1/" xmlns:cc="http://creativecommons.org/ns#" xmlns:rdf="http://www.w3.org/1999/02/22-rdf-syntax-ns#">
   <cc:Work>
    <dc:type rdf:resource="http://purl.org/dc/dcmitype/StillImage"/>
    <dc:date>2025-08-08T17:02:55.677343</dc:date>
    <dc:format>image/svg+xml</dc:format>
    <dc:creator>
     <cc:Agent>
      <dc:title>Matplotlib v3.10.5, https://matplotlib.org/</dc:title>
     </cc:Agent>
    </dc:creator>
   </cc:Work>
  </rdf:RDF>
 </metadata>
 <defs>
  <style type="text/css">*{stroke-linejoin: round; stroke-linecap: butt}</style>
 </defs>
 <g id="figure_1">
  <g id="patch_1">
   <path d="M 0 191.4225 
L 427.4525 191.4225 
L 427.4525 -0 
L 0 -0 
L 0 191.4225 
z
" style="fill: none"/>
  </g>
  <g id="axes_1">
   <g id="patch_2">
    <path d="M 336.116762 99.467588 
C 337.681659 99.467588 339.182673 98.845848 340.289223 97.739298 
C 341.395772 96.632749 342.017512 95.131735 342.017512 93.566838 
C 342.017512 92.001941 341.395772 90.500927 340.289223 89.394378 
C 339.182673 88.287828 337.681659 87.666088 336.116762 87.666088 
C 334.551865 87.666088 333.050851 88.287828 331.944302 89.394378 
C 330.837752 90.500927 330.216012 92.001941 330.216012 93.566838 
C 330.216012 95.131735 330.837752 96.632749 331.944302 97.739298 
C 333.050851 98.845848 334.551865 99.467588 336.116762 99.467588 
z
" clip-path="url(#p5195a967b5)" style="fill: #1f77b4"/>
   </g>
   <g id="patch_3">
    <path d="M 385.869756 41.806306 
C 387.434654 41.806306 388.935667 41.184566 390.042217 40.078017 
C 391.148766 38.971467 391.770506 37.470453 391.770506 35.905556 
C 391.770506 34.340659 391.148766 32.839645 390.042217 31.733096 
C 388.935667 30.626546 387.434654 30.004806 385.869756 30.004806 
C 384.304859 30.004806 382.803846 30.626546 381.697296 31.733096 
C 380.590747 32.839645 379.969006 34.340659 379.969006 35.905556 
C 379.969006 37.470453 380.590747 38.971467 381.697296 40.078017 
C 382.803846 41.184566 384.304859 41.806306 385.869756 41.806306 
z
" clip-path="url(#p5195a967b5)" style="fill: #1f77b4"/>
   </g>
   <g id="patch_4">
    <path d="M 29.693189 173.604473 
C 31.258086 173.604473 32.7591 172.982733 33.865649 171.876183 
C 34.972199 170.769634 35.593939 169.26862 35.593939 167.703723 
C 35.593939 166.138826 34.972199 164.637812 33.865649 163.531263 
C 32.7591 162.424713 31.258086 161.802973 29.693189 161.802973 
C 28.128292 161.802973 26.627278 162.424713 25.520729 163.531263 
C 24.414179 164.637812 23.792439 166.138826 23.792439 167.703723 
C 23.792439 169.26862 24.414179 170.769634 25.520729 171.876183 
C 26.627278 172.982733 28.128292 173.604473 29.693189 173.604473 
z
" clip-path="url(#p5195a967b5)" style="fill: #1f77b4"/>
   </g>
   <g id="patch_5">
    <path d="M 284.743878 51.347716 
C 286.308776 51.347716 287.809789 50.725975 288.916339 49.619426 
C 290.022888 48.512876 290.644628 47.011863 290.644628 45.446966 
C 290.644628 43.882068 290.022888 42.381055 288.916339 41.274505 
C 287.809789 40.167956 286.308776 39.546216 284.743878 39.546216 
C 283.178981 39.546216 281.677968 40.167956 280.571418 41.274505 
C 279.464869 42.381055 278.843128 43.882068 278.843128 45.446966 
C 278.843128 47.011863 279.464869 48.512876 280.571418 49.619426 
C 281.677968 50.725975 283.178981 51.347716 284.743878 51.347716 
z
" clip-path="url(#p5195a967b5)" style="fill: #1f77b4"/>
   </g>
   <g id="patch_6">
    <path d="M 230.450089 159.211284 
C 232.014987 159.211284 233.516 158.589543 234.62255 157.482994 
C 235.729099 156.376445 236.350839 154.875431 236.350839 153.310534 
C 236.350839 151.745636 235.729099 150.244623 234.62255 149.138073 
C 233.516 148.031524 232.014987 147.409784 230.450089 147.409784 
C 228.885192 147.409784 227.384179 148.031524 226.277629 149.138073 
C 225.17108 150.244623 224.549339 151.745636 224.549339 153.310534 
C 224.549339 154.875431 225.17108 156.376445 226.277629 157.482994 
C 227.384179 158.589543 228.885192 159.211284 230.450089 159.211284 
z
" clip-path="url(#p5195a967b5)" style="fill: #1f77b4"/>
   </g>
   <g id="patch_7">
    <path d="M 46.536748 23.911238 
C 48.101645 23.911238 49.602659 23.289498 50.709209 22.182949 
C 51.815758 21.076399 52.437498 19.575386 52.437498 18.010488 
C 52.437498 16.445591 51.815758 14.944577 50.709209 13.838028 
C 49.602659 12.731479 48.101645 12.109738 46.536748 12.109738 
C 44.971851 12.109738 43.470837 12.731479 42.364288 13.838028 
C 41.257738 14.944577 40.635998 16.445591 40.635998 18.010488 
C 40.635998 19.575386 41.257738 21.076399 42.364288 22.182949 
C 43.470837 23.289498 44.971851 23.911238 46.536748 23.911238 
z
" clip-path="url(#p5195a967b5)" style="fill: #1f77b4"/>
   </g>
   <g id="patch_8">
    <path d="M 389.415305 144.740887 
C 390.980202 144.740887 392.481216 144.119146 393.587765 143.012597 
C 394.694315 141.906048 395.316055 140.405034 395.316055 138.840137 
C 395.316055 137.275239 394.694315 135.774226 393.587765 134.667676 
C 392.481216 133.561127 390.980202 132.939387 389.415305 132.939387 
C 387.850408 132.939387 386.349394 133.561127 385.242845 134.667676 
C 384.136295 135.774226 383.514555 137.275239 383.514555 138.840137 
C 383.514555 140.405034 384.136295 141.906048 385.242845 143.012597 
C 386.349394 144.119146 387.850408 144.740887 389.415305 144.740887 
z
" clip-path="url(#p5195a967b5)" style="fill: #1f77b4"/>
   </g>
   <g id="patch_9">
    <path d="M 65.045055 100.118783 
C 66.609952 100.118783 68.110966 99.497043 69.217515 98.390493 
C 70.324064 97.283944 70.945805 95.78293 70.945805 94.218033 
C 70.945805 92.653136 70.324064 91.152122 69.217515 90.045572 
C 68.110966 88.939023 66.609952 88.317283 65.045055 88.317283 
C 63.480157 88.317283 61.979144 88.939023 60.872594 90.045572 
C 59.766045 91.152122 59.144305 92.653136 59.144305 94.218033 
C 59.144305 95.78293 59.766045 97.283944 60.872594 98.390493 
C 61.979144 99.497043 63.480157 100.118783 65.045055 100.118783 
z
" clip-path="url(#p5195a967b5)" style="fill: #1f77b4"/>
   </g>
   <g id="patch_10">
    <path d="M 129.518998 119.992627 
C 131.083895 119.992627 132.584909 119.370886 133.691459 118.264337 
C 134.798008 117.157787 135.419748 115.656774 135.419748 114.091877 
C 135.419748 112.526979 134.798008 111.025966 133.691459 109.919416 
C 132.584909 108.812867 131.083895 108.191127 129.518998 108.191127 
C 127.954101 108.191127 126.453087 108.812867 125.346538 109.919416 
C 124.239989 111.025966 123.618248 112.526979 123.618248 114.091877 
C 123.618248 115.656774 124.239989 117.157787 125.346538 118.264337 
C 126.453087 119.370886 127.954101 119.992627 129.518998 119.992627 
z
" clip-path="url(#p5195a967b5)" style="fill: #1f77b4"/>
   </g>
   <g id="patch_11">
    <path d="M 397.338277 68.208966 
C 398.903175 68.208966 400.404188 67.587226 401.510738 66.480676 
C 402.617287 65.374127 403.239027 63.873113 403.239027 62.308216 
C 403.239027 60.743319 402.617287 59.242305 401.510738 58.135756 
C 400.404188 57.029206 398.903175 56.407466 397.338277 56.407466 
C 395.77338 56.407466 394.272366 57.029206 393.165817 58.135756 
C 392.059268 59.242305 391.437527 60.743319 391.437527 62.308216 
C 391.437527 63.873113 392.059268 65.374127 393.165817 66.480676 
C 394.272366 67.587226 395.77338 68.208966 397.338277 68.208966 
z
" clip-path="url(#p5195a967b5)" style="fill: #1f77b4"/>
   </g>
   <g id="patch_12">
    <path d="M 256.352309 114.373255 
C 257.917206 114.373255 259.418219 113.751515 260.524769 112.644965 
C 261.631318 111.538416 262.253059 110.037402 262.253059 108.472505 
C 262.253059 106.907608 261.631318 105.406594 260.524769 104.300045 
C 259.418219 103.193495 257.917206 102.571755 256.352309 102.571755 
C 254.787411 102.571755 253.286398 103.193495 252.179848 104.300045 
C 251.073299 105.406594 250.451559 106.907608 250.451559 108.472505 
C 250.451559 110.037402 251.073299 111.538416 252.179848 112.644965 
C 253.286398 113.751515 254.787411 114.373255 256.352309 114.373255 
z
" clip-path="url(#p5195a967b5)" style="fill: #1f77b4"/>
   </g>
   <g id="patch_13">
    <path d="M 192.741465 60.886722 
C 194.306362 60.886722 195.807375 60.264982 196.913925 59.158433 
C 198.020474 58.051883 198.642215 56.55087 198.642215 54.985972 
C 198.642215 53.421075 198.020474 51.920061 196.913925 50.813512 
C 195.807375 49.706963 194.306362 49.085222 192.741465 49.085222 
C 191.176567 49.085222 189.675554 49.706963 188.569004 50.813512 
C 187.462455 51.920061 186.840715 53.421075 186.840715 54.985972 
C 186.840715 56.55087 187.462455 58.051883 188.569004 59.158433 
C 189.675554 60.264982 191.176567 60.886722 192.741465 60.886722 
z
" clip-path="url(#p5195a967b5)" style="fill: #1f77b4"/>
   </g>
   <g id="patch_14">
    <path d="M 92.010415 85.862668 
C 93.575312 85.862668 95.076326 85.240928 96.182876 84.134379 
C 97.289425 83.027829 97.911165 81.526815 97.911165 79.961918 
C 97.911165 78.397021 97.289425 76.896007 96.182876 75.789458 
C 95.076326 74.682908 93.575312 74.061168 92.010415 74.061168 
C 90.445518 74.061168 88.944504 74.682908 87.837955 75.789458 
C 86.731405 76.896007 86.109665 78.397021 86.109665 79.961918 
C 86.109665 81.526815 86.731405 83.027829 87.837955 84.134379 
C 88.944504 85.240928 90.445518 85.862668 92.010415 85.862668 
z
" clip-path="url(#p5195a967b5)" style="fill: #1f77b4"/>
   </g>
   <g id="patch_15">
    <path d="M 317.425905 152.527614 
C 318.990802 152.527614 320.491816 151.905874 321.598366 150.799325 
C 322.704915 149.692775 323.326655 148.191761 323.326655 146.626864 
C 323.326655 145.061967 322.704915 143.560953 321.598366 142.454404 
C 320.491816 141.347854 318.990802 140.726114 317.425905 140.726114 
C 315.861008 140.726114 314.359994 141.347854 313.253445 142.454404 
C 312.146895 143.560953 311.525155 145.061967 311.525155 146.626864 
C 311.525155 148.191761 312.146895 149.692775 313.253445 150.799325 
C 314.359994 151.905874 315.861008 152.527614 317.425905 152.527614 
z
" clip-path="url(#p5195a967b5)" style="fill: #1f77b4"/>
   </g>
   <g id="patch_16">
    <path d="M 363.839103 110.411585 
C 365.404 110.411585 366.905014 109.789845 368.011563 108.683295 
C 369.118113 107.576746 369.739853 106.075732 369.739853 104.510835 
C 369.739853 102.945938 369.118113 101.444924 368.011563 100.338375 
C 366.905014 99.231825 365.404 98.610085 363.839103 98.610085 
C 362.274206 98.610085 360.773192 99.231825 359.666643 100.338375 
C 358.560093 101.444924 357.938353 102.945938 357.938353 104.510835 
C 357.938353 106.075732 358.560093 107.576746 359.666643 108.683295 
C 360.773192 109.789845 362.274206 110.411585 363.839103 110.411585 
z
" clip-path="url(#p5195a967b5)" style="fill: #1f77b4"/>
   </g>
   <g id="patch_17">
    <path d="M 111.636647 85.505977 
C 113.201544 85.505977 114.702557 84.884237 115.809107 83.777687 
C 116.915656 82.671138 117.537397 81.170124 117.537397 79.605227 
C 117.537397 78.04033 116.915656 76.539316 115.809107 75.432767 
C 114.702557 74.326217 113.201544 73.704477 111.636647 73.704477 
C 110.071749 73.704477 108.570736 74.326217 107.464186 75.432767 
C 106.357637 76.539316 105.735897 78.04033 105.735897 79.605227 
C 105.735897 81.170124 106.357637 82.671138 107.464186 83.777687 
C 108.570736 84.884237 110.071749 85.505977 111.636647 85.505977 
z
" clip-path="url(#p5195a967b5)" style="fill: #1f77b4"/>
   </g>
   <g id="patch_18">
    <path d="M 353.511737 124.555811 
C 355.076634 124.555811 356.577648 123.934071 357.684198 122.827521 
C 358.790747 121.720972 359.412487 120.219958 359.412487 118.655061 
C 359.412487 117.090164 358.790747 115.58915 357.684198 114.4826 
C 356.577648 113.376051 355.076634 112.754311 353.511737 112.754311 
C 351.94684 112.754311 350.445826 113.376051 349.339277 114.4826 
C 348.232727 115.58915 347.610987 117.090164 347.610987 118.655061 
C 347.610987 120.219958 348.232727 121.720972 349.339277 122.827521 
C 350.445826 123.934071 351.94684 124.555811 353.511737 124.555811 
z
" clip-path="url(#p5195a967b5)" style="fill: #1f77b4"/>
   </g>
   <g id="patch_19">
    <path d="M 199.070136 43.091477 
C 200.635033 43.091477 202.136047 42.469737 203.242596 41.363188 
C 204.349146 40.256638 204.970886 38.755625 204.970886 37.190727 
C 204.970886 35.62583 204.349146 34.124816 203.242596 33.018267 
C 202.136047 31.911718 200.635033 31.289977 199.070136 31.289977 
C 197.505239 31.289977 196.004225 31.911718 194.897676 33.018267 
C 193.791126 34.124816 193.169386 35.62583 193.169386 37.190727 
C 193.169386 38.755625 193.791126 40.256638 194.897676 41.363188 
C 196.004225 42.469737 197.505239 43.091477 199.070136 43.091477 
z
" clip-path="url(#p5195a967b5)" style="fill: #1f77b4"/>
   </g>
   <g id="patch_20">
    <path d="M 360.425146 139.916593 
C 361.990044 139.916593 363.491057 139.294853 364.597607 138.188304 
C 365.704156 137.081754 366.325896 135.580741 366.325896 134.015843 
C 366.325896 132.450946 365.704156 130.949933 364.597607 129.843383 
C 363.491057 128.736834 361.990044 128.115093 360.425146 128.115093 
C 358.860249 128.115093 357.359235 128.736834 356.252686 129.843383 
C 355.146137 130.949933 354.524396 132.450946 354.524396 134.015843 
C 354.524396 135.580741 355.146137 137.081754 356.252686 138.188304 
C 357.359235 139.294853 358.860249 139.916593 360.425146 139.916593 
z
" clip-path="url(#p5195a967b5)" style="fill: #1f77b4"/>
   </g>
   <g id="patch_21">
    <path d="M 174.501739 78.671307 
C 176.066636 78.671307 177.56765 78.049567 178.674199 76.943017 
C 179.780749 75.836468 180.402489 74.335454 180.402489 72.770557 
C 180.402489 71.20566 179.780749 69.704646 178.674199 68.598097 
C 177.56765 67.491547 176.066636 66.869807 174.501739 66.869807 
C 172.936842 66.869807 171.435828 67.491547 170.329279 68.598097 
C 169.222729 69.704646 168.600989 71.20566 168.600989 72.770557 
C 168.600989 74.335454 169.222729 75.836468 170.329279 76.943017 
C 171.435828 78.049567 172.936842 78.671307 174.501739 78.671307 
z
" clip-path="url(#p5195a967b5)" style="fill: #1f77b4"/>
   </g>
   <g id="patch_22">
    <path d="M 106.712584 46.965096 
C 108.277481 46.965096 109.778495 46.343355 110.885044 45.236806 
C 111.991593 44.130257 112.613334 42.629243 112.613334 41.064346 
C 112.613334 39.499448 111.991593 37.998435 110.885044 36.891885 
C 109.778495 35.785336 108.277481 35.163596 106.712584 35.163596 
C 105.147686 35.163596 103.646673 35.785336 102.540123 36.891885 
C 101.433574 37.998435 100.811834 39.499448 100.811834 41.064346 
C 100.811834 42.629243 101.433574 44.130257 102.540123 45.236806 
C 103.646673 46.343355 105.147686 46.965096 106.712584 46.965096 
z
" clip-path="url(#p5195a967b5)" style="fill: #1f77b4"/>
   </g>
   <g id="patch_23">
    <path d="M 298.676754 162.28248 
C 300.241651 162.28248 301.742664 161.66074 302.849214 160.554191 
C 303.955763 159.447641 304.577504 157.946627 304.577504 156.38173 
C 304.577504 154.816833 303.955763 153.315819 302.849214 152.20927 
C 301.742664 151.102721 300.241651 150.48098 298.676754 150.48098 
C 297.111856 150.48098 295.610843 151.102721 294.504293 152.20927 
C 293.397744 153.315819 292.776004 154.816833 292.776004 156.38173 
C 292.776004 157.946627 293.397744 159.447641 294.504293 160.554191 
C 295.610843 161.66074 297.111856 162.28248 298.676754 162.28248 
z
" clip-path="url(#p5195a967b5)" style="fill: #1f77b4"/>
   </g>
   <g id="patch_24">
    <path d="M 250.581321 148.897673 
C 252.146219 148.897673 253.647232 148.275933 254.753782 147.169383 
C 255.860331 146.062834 256.482071 144.56182 256.482071 142.996923 
C 256.482071 141.432026 255.860331 139.931012 254.753782 138.824462 
C 253.647232 137.717913 252.146219 137.096173 250.581321 137.096173 
C 249.016424 137.096173 247.515411 137.717913 246.408861 138.824462 
C 245.302312 139.931012 244.680571 141.432026 244.680571 142.996923 
C 244.680571 144.56182 245.302312 146.062834 246.408861 147.169383 
C 247.515411 148.275933 249.016424 148.897673 250.581321 148.897673 
z
" clip-path="url(#p5195a967b5)" style="fill: #1f77b4"/>
   </g>
   <g id="patch_25">
    <path d="M 244.570556 64.235898 
C 246.135453 64.235898 247.636467 63.614158 248.743016 62.507609 
C 249.849566 61.401059 250.471306 59.900046 250.471306 58.335148 
C 250.471306 56.770251 249.849566 55.269238 248.743016 54.162688 
C 247.636467 53.056139 246.135453 52.434398 244.570556 52.434398 
C 243.005659 52.434398 241.504645 53.056139 240.398095 54.162688 
C 239.291546 55.269238 238.669806 56.770251 238.669806 58.335148 
C 238.669806 59.900046 239.291546 61.401059 240.398095 62.507609 
C 241.504645 63.614158 243.005659 64.235898 244.570556 64.235898 
z
" clip-path="url(#p5195a967b5)" style="fill: #1f77b4"/>
   </g>
   <g id="patch_26">
    <path d="M 218.441933 169.323031 
C 220.00683 169.323031 221.507844 168.701291 222.614393 167.594741 
C 223.720943 166.488192 224.342683 164.987178 224.342683 163.422281 
C 224.342683 161.857384 223.720943 160.35637 222.614393 159.24982 
C 221.507844 158.143271 220.00683 157.521531 218.441933 157.521531 
C 216.877036 157.521531 215.376022 158.143271 214.269473 159.24982 
C 213.162923 160.35637 212.541183 161.857384 212.541183 163.422281 
C 212.541183 164.987178 213.162923 166.488192 214.269473 167.594741 
C 215.376022 168.701291 216.877036 169.323031 218.441933 169.323031 
z
" clip-path="url(#p5195a967b5)" style="fill: #1f77b4"/>
   </g>
   <g id="patch_27">
    <path d="M 366.986354 83.081045 
C 368.551252 83.081045 370.052265 82.459304 371.158815 81.352755 
C 372.265364 80.246205 372.887104 78.745192 372.887104 77.180295 
C 372.887104 75.615397 372.265364 74.114384 371.158815 73.007834 
C 370.052265 71.901285 368.551252 71.279545 366.986354 71.279545 
C 365.421457 71.279545 363.920443 71.901285 362.813894 73.007834 
C 361.707345 74.114384 361.085604 75.615397 361.085604 77.180295 
C 361.085604 78.745192 361.707345 80.246205 362.813894 81.352755 
C 363.920443 82.459304 365.421457 83.081045 366.986354 83.081045 
z
" clip-path="url(#p5195a967b5)" style="fill: #1f77b4"/>
   </g>
   <g id="patch_28">
    <path d="M 162.022266 95.819393 
C 163.587163 95.819393 165.088177 95.197653 166.194726 94.091103 
C 167.301276 92.984554 167.923016 91.48354 167.923016 89.918643 
C 167.923016 88.353746 167.301276 86.852732 166.194726 85.746183 
C 165.088177 84.639633 163.587163 84.017893 162.022266 84.017893 
C 160.457369 84.017893 158.956355 84.639633 157.849806 85.746183 
C 156.743256 86.852732 156.121516 88.353746 156.121516 89.918643 
C 156.121516 91.48354 156.743256 92.984554 157.849806 94.091103 
C 158.956355 95.197653 160.457369 95.819393 162.022266 95.819393 
z
" clip-path="url(#p5195a967b5)" style="fill: #1f77b4"/>
   </g>
   <g id="patch_29">
    <path d="M 125.066584 25.520195 
C 126.631481 25.520195 128.132495 24.898455 129.239045 23.791905 
C 130.345594 22.685356 130.967334 21.184342 130.967334 19.619445 
C 130.967334 18.054548 130.345594 16.553534 129.239045 15.446985 
C 128.132495 14.340435 126.631481 13.718695 125.066584 13.718695 
C 123.501687 13.718695 122.000673 14.340435 120.894124 15.446985 
C 119.787574 16.553534 119.165834 18.054548 119.165834 19.619445 
C 119.165834 21.184342 119.787574 22.685356 120.894124 23.791905 
C 122.000673 24.898455 123.501687 25.520195 125.066584 25.520195 
z
" clip-path="url(#p5195a967b5)" style="fill: #1f77b4"/>
   </g>
   <g id="patch_30">
    <path d="M 376.254694 174.641781 
C 377.819591 174.641781 379.320605 174.020041 380.427154 172.913491 
C 381.533704 171.806942 382.155444 170.305928 382.155444 168.741031 
C 382.155444 167.176134 381.533704 165.67512 380.427154 164.568571 
C 379.320605 163.462021 377.819591 162.840281 376.254694 162.840281 
C 374.689797 162.840281 373.188783 163.462021 372.082234 164.568571 
C 370.975684 165.67512 370.353944 167.176134 370.353944 168.741031 
C 370.353944 170.305928 370.975684 171.806942 372.082234 172.913491 
C 373.188783 174.020041 374.689797 174.641781 376.254694 174.641781 
z
" clip-path="url(#p5195a967b5)" style="fill: #1f77b4"/>
   </g>
   <g id="patch_31">
    <path d="M 81.833031 107.109578 
C 83.397928 107.109578 84.898942 106.487837 86.005491 105.381288 
C 87.112041 104.274739 87.733781 102.773725 87.733781 101.208828 
C 87.733781 99.64393 87.112041 98.142917 86.005491 97.036367 
C 84.898942 95.929818 83.397928 95.308078 81.833031 95.308078 
C 80.268134 95.308078 78.76712 95.929818 77.660571 97.036367 
C 76.554021 98.142917 75.932281 99.64393 75.932281 101.208828 
C 75.932281 102.773725 76.554021 104.274739 77.660571 105.381288 
C 78.76712 106.487837 80.268134 107.109578 81.833031 107.109578 
z
" clip-path="url(#p5195a967b5)" style="fill: #1f77b4"/>
   </g>
   <g id="patch_32">
    <path d="M 325.581385 42.459111 
C 327.146282 42.459111 328.647295 41.837371 329.753845 40.730822 
C 330.860394 39.624272 331.482135 38.123259 331.482135 36.558361 
C 331.482135 34.993464 330.860394 33.492451 329.753845 32.385901 
C 328.647295 31.279352 327.146282 30.657611 325.581385 30.657611 
C 324.016487 30.657611 322.515474 31.279352 321.408924 32.385901 
C 320.302375 33.492451 319.680635 34.993464 319.680635 36.558361 
C 319.680635 38.123259 320.302375 39.624272 321.408924 40.730822 
C 322.515474 41.837371 324.016487 42.459111 325.581385 42.459111 
z
" clip-path="url(#p5195a967b5)" style="fill: #1f77b4"/>
   </g>
   <g id="patch_33">
    <path d="M 235.090437 88.122886 
C 236.655334 88.122886 238.156347 87.501145 239.262897 86.394596 
C 240.369446 85.288046 240.991187 83.787033 240.991187 82.222136 
C 240.991187 80.657238 240.369446 79.156225 239.262897 78.049675 
C 238.156347 76.943126 236.655334 76.321386 235.090437 76.321386 
C 233.525539 76.321386 232.024526 76.943126 230.917976 78.049675 
C 229.811427 79.156225 229.189687 80.657238 229.189687 82.222136 
C 229.189687 83.787033 229.811427 85.288046 230.917976 86.394596 
C 232.024526 87.501145 233.525539 88.122886 235.090437 88.122886 
z
" clip-path="url(#p5195a967b5)" style="fill: #1f77b4"/>
   </g>
   <g id="patch_34">
    <path d="M 404.999225 168.560941 
C 406.564122 168.560941 408.065136 167.939201 409.171686 166.832651 
C 410.278235 165.726102 410.899975 164.225088 410.899975 162.660191 
C 410.899975 161.095294 410.278235 159.59428 409.171686 158.487731 
C 408.065136 157.381181 406.564122 156.759441 404.999225 156.759441 
C 403.434328 156.759441 401.933314 157.381181 400.826765 158.487731 
C 399.720216 159.59428 399.098475 161.095294 399.098475 162.660191 
C 399.098475 164.225088 399.720216 165.726102 400.826765 166.832651 
C 401.933314 167.939201 403.434328 168.560941 404.999225 168.560941 
z
" clip-path="url(#p5195a967b5)" style="fill: #1f77b4"/>
   </g>
   <g id="patch_35">
    <path d="M 97.764363 132.883882 
C 99.32926 132.883882 100.830274 132.262142 101.936823 131.155593 
C 103.043373 130.049043 103.665113 128.548029 103.665113 126.983132 
C 103.665113 125.418235 103.043373 123.917221 101.936823 122.810672 
C 100.830274 121.704122 99.32926 121.082382 97.764363 121.082382 
C 96.199466 121.082382 94.698452 121.704122 93.591902 122.810672 
C 92.485353 123.917221 91.863613 125.418235 91.863613 126.983132 
C 91.863613 128.548029 92.485353 130.049043 93.591902 131.155593 
C 94.698452 132.262142 96.199466 132.883882 97.764363 132.883882 
z
" clip-path="url(#p5195a967b5)" style="fill: #1f77b4"/>
   </g>
   <g id="patch_36">
    <path d="M 169.144016 130.583373 
C 170.708913 130.583373 172.209926 129.961633 173.316476 128.855084 
C 174.423025 127.748534 175.044766 126.247521 175.044766 124.682623 
C 175.044766 123.117726 174.423025 121.616713 173.316476 120.510163 
C 172.209926 119.403614 170.708913 118.781873 169.144016 118.781873 
C 167.579118 118.781873 166.078105 119.403614 164.971555 120.510163 
C 163.865006 121.616713 163.243266 123.117726 163.243266 124.682623 
C 163.243266 126.247521 163.865006 127.748534 164.971555 128.855084 
C 166.078105 129.961633 167.579118 130.583373 169.144016 130.583373 
z
" clip-path="url(#p5195a967b5)" style="fill: #1f77b4"/>
   </g>
   <g id="patch_37">
    <path d="M 401.476382 154.975731 
C 403.041279 154.975731 404.542292 154.353991 405.648842 153.247442 
C 406.755391 152.140892 407.377132 150.639878 407.377132 149.074981 
C 407.377132 147.510084 406.755391 146.00907 405.648842 144.902521 
C 404.542292 143.795972 403.041279 143.174231 401.476382 143.174231 
C 399.911484 143.174231 398.410471 143.795972 397.303921 144.902521 
C 396.197372 146.00907 395.575632 147.510084 395.575632 149.074981 
C 395.575632 150.639878 396.197372 152.140892 397.303921 153.247442 
C 398.410471 154.353991 399.911484 154.975731 401.476382 154.975731 
z
" clip-path="url(#p5195a967b5)" style="fill: #1f77b4"/>
   </g>
   <g id="patch_38">
    <path d="M 394.630708 89.510878 
C 396.195606 89.510878 397.696619 88.889138 398.803169 87.782588 
C 399.909718 86.676039 400.531458 85.175025 400.531458 83.610128 
C 400.531458 82.045231 399.909718 80.544217 398.803169 79.437668 
C 397.696619 78.331118 396.195606 77.709378 394.630708 77.709378 
C 393.065811 77.709378 391.564797 78.331118 390.458248 79.437668 
C 389.351699 80.544217 388.729958 82.045231 388.729958 83.610128 
C 388.729958 85.175025 389.351699 86.676039 390.458248 87.782588 
C 391.564797 88.889138 393.065811 89.510878 394.630708 89.510878 
z
" clip-path="url(#p5195a967b5)" style="fill: #1f77b4"/>
   </g>
   <g id="patch_39">
    <path d="M 131.183785 172.975593 
C 132.748682 172.975593 134.249696 172.353853 135.356245 171.247303 
C 136.462795 170.140754 137.084535 168.63974 137.084535 167.074843 
C 137.084535 165.509946 136.462795 164.008932 135.356245 162.902383 
C 134.249696 161.795833 132.748682 161.174093 131.183785 161.174093 
C 129.618888 161.174093 128.117874 161.795833 127.011324 162.902383 
C 125.904775 164.008932 125.283035 165.509946 125.283035 167.074843 
C 125.283035 168.63974 125.904775 170.140754 127.011324 171.247303 
C 128.117874 172.353853 129.618888 172.975593 131.183785 172.975593 
z
" clip-path="url(#p5195a967b5)" style="fill: #1f77b4"/>
   </g>
   <g id="patch_40">
    <path d="M 268.654265 175.60942 
C 270.219162 175.60942 271.720176 174.98768 272.826726 173.881131 
C 273.933275 172.774581 274.555015 171.273568 274.555015 169.70867 
C 274.555015 168.143773 273.933275 166.642759 272.826726 165.53621 
C 271.720176 164.429661 270.219162 163.80792 268.654265 163.80792 
C 267.089368 163.80792 265.588354 164.429661 264.481805 165.53621 
C 263.375256 166.642759 262.753515 168.143773 262.753515 169.70867 
C 262.753515 171.273568 263.375256 172.774581 264.481805 173.881131 
C 265.588354 174.98768 267.089368 175.60942 268.654265 175.60942 
z
" clip-path="url(#p5195a967b5)" style="fill: #1f77b4"/>
   </g>
   <g id="patch_41">
    <path d="M 163.848655 141.759624 
C 165.413552 141.759624 166.914566 141.137884 168.021115 140.031335 
C 169.127665 138.924785 169.749405 137.423772 169.749405 135.858874 
C 169.749405 134.293977 169.127665 132.792964 168.021115 131.686414 
C 166.914566 130.579865 165.413552 129.958124 163.848655 129.958124 
C 162.283758 129.958124 160.782744 130.579865 159.676195 131.686414 
C 158.569645 132.792964 157.947905 134.293977 157.947905 135.858874 
C 157.947905 137.423772 158.569645 138.924785 159.676195 140.031335 
C 160.782744 141.137884 162.283758 141.759624 163.848655 141.759624 
z
" clip-path="url(#p5195a967b5)" style="fill: #1f77b4"/>
   </g>
  </g>
 </g>
 <defs>
  <clipPath id="p5195a967b5">
   <rect x="7.2" y="7.2" width="413.0525" height="177.0225"/>
  </clipPath>
 </defs>
</svg>
